<svg xmlns="http://www.w3.org/2000/svg" xmlns:xlink="http://www.w3.org/1999/xlink" width="500" zoomAndPan="magnify" viewBox="0 0 375 374.999991" height="500" preserveAspectRatio="xMidYMid meet" version="1.0"><defs><g/><clipPath id="7b6ae21612"><path d="M 21 139.976562 L 104 139.976562 L 104 235.226562 L 21 235.226562 Z M 21 139.976562 " clip-rule="nonzero"/></clipPath></defs><path fill="#000000" d="M 84.996094 151.0625 C 77.667969 149.59375 70.171875 148.828125 62.71875 148.792969 C 55.238281 148.828125 47.71875 149.59375 40.390625 151.0625 C 37.03125 151.734375 33.671875 152.566406 30.378906 153.535156 C 30.1875 169.371094 30.359375 203.480469 52.785156 219.496094 C 55.730469 221.601562 58.914062 223.800781 62.691406 225.679688 C 66.476562 223.796875 69.660156 221.597656 72.601562 219.496094 C 95.023438 203.480469 95.195312 169.375 95.007812 153.535156 C 91.707031 152.566406 88.347656 151.734375 84.996094 151.0625 Z M 80.398438 167.683594 C 79.9375 168.148438 76.378906 171.476562 71.996094 175.5625 L 75.59375 196.828125 C 75.660156 197.203125 75.535156 197.585938 75.265625 197.855469 L 73.855469 199.265625 C 73.6875 199.433594 73.40625 199.390625 73.292969 199.179688 L 64.453125 182.585938 C 61 185.796875 57.769531 188.800781 55.707031 190.71875 L 55.300781 198.039062 C 55.28125 198.328125 55.160156 198.601562 54.957031 198.808594 L 54.011719 199.75 C 53.882812 199.878906 53.667969 199.835938 53.613281 199.667969 L 51.085938 192.28125 C 51.015625 192.074219 50.855469 191.914062 50.652344 191.847656 L 43.273438 189.335938 C 43.105469 189.28125 43.0625 189.066406 43.191406 188.9375 L 44.136719 187.996094 C 44.339844 187.792969 44.613281 187.667969 44.902344 187.652344 L 52.207031 187.238281 C 54.125 185.175781 57.128906 181.941406 60.351562 178.484375 L 43.746094 169.660156 C 43.535156 169.546875 43.492188 169.265625 43.660156 169.101562 L 45.070312 167.691406 C 45.339844 167.421875 45.726562 167.296875 46.101562 167.363281 L 67.371094 170.957031 C 71.324219 166.726562 74.578125 163.261719 75.273438 162.5625 C 76.441406 161.398438 80.585938 159.933594 81.808594 161.15625 C 83.03125 162.375 81.558594 166.515625 80.398438 167.683594 Z M 80.398438 167.683594 " fill-opacity="1" fill-rule="nonzero"/><g clip-path="url(#7b6ae21612)"><path fill="#000000" d="M 103.769531 148.402344 C 103.761719 147.621094 103.277344 146.933594 102.539062 146.679688 C 97.902344 145.097656 92.613281 143.597656 86.730469 142.417969 C 77.664062 140.601562 69.496094 140.011719 62.691406 139.976562 C 55.886719 140.011719 47.722656 140.601562 38.652344 142.417969 C 32.769531 143.597656 27.484375 145.097656 22.847656 146.679688 C 22.105469 146.933594 21.621094 147.621094 21.617188 148.402344 C 21.515625 163.625 19.195312 206.34375 47.652344 226.664062 C 51.550781 229.453125 56.121094 232.585938 61.957031 235.035156 C 62.421875 235.226562 62.964844 235.226562 63.425781 235.035156 C 69.261719 232.585938 73.832031 229.453125 77.734375 226.664062 C 106.191406 206.34375 103.867188 163.625 103.769531 148.402344 Z M 74.652344 222.363281 C 71.386719 224.695312 67.832031 227.148438 63.449219 229.230469 C 63.210938 229.34375 62.949219 229.398438 62.691406 229.398438 C 62.433594 229.398438 62.175781 229.34375 61.9375 229.230469 C 57.558594 227.152344 54.003906 224.699219 50.734375 222.363281 C 26.175781 204.828125 26.675781 166.589844 26.867188 152.195312 C 26.875 151.429688 27.378906 150.757812 28.113281 150.535156 C 31.910156 149.371094 35.804688 148.386719 39.691406 147.605469 C 47.246094 146.089844 54.992188 145.304688 62.714844 145.265625 C 70.414062 145.304688 78.136719 146.089844 85.6875 147.605469 C 89.574219 148.386719 93.46875 149.371094 97.269531 150.535156 C 98 150.761719 98.503906 151.433594 98.515625 152.199219 C 98.707031 166.589844 99.207031 204.828125 74.652344 222.363281 Z M 74.652344 222.363281 " fill-opacity="1" fill-rule="nonzero"/></g><g fill="#000000" fill-opacity="1"><g transform="translate(108.403841, 207.749986)"><g><path d="M 17.515625 -19.015625 C 12.691406 -20.398438 9.179688 -22.101562 6.984375 -24.125 C 4.785156 -26.144531 3.6875 -28.640625 3.6875 -31.609375 C 3.6875 -34.972656 5.03125 -37.753906 7.71875 -39.953125 C 10.40625 -42.148438 13.894531 -43.25 18.1875 -43.25 C 21.125 -43.25 23.738281 -42.679688 26.03125 -41.546875 C 28.320312 -40.410156 30.097656 -38.847656 31.359375 -36.859375 C 32.617188 -34.867188 33.25 -32.691406 33.25 -30.328125 L 27.59375 -30.328125 C 27.59375 -32.898438 26.769531 -34.921875 25.125 -36.390625 C 23.488281 -37.867188 21.175781 -38.609375 18.1875 -38.609375 C 15.414062 -38.609375 13.253906 -38 11.703125 -36.78125 C 10.148438 -35.5625 9.375 -33.867188 9.375 -31.703125 C 9.375 -29.960938 10.109375 -28.488281 11.578125 -27.28125 C 13.054688 -26.082031 15.566406 -24.984375 19.109375 -23.984375 C 22.660156 -22.992188 25.4375 -21.894531 27.4375 -20.6875 C 29.4375 -19.488281 30.921875 -18.085938 31.890625 -16.484375 C 32.859375 -14.890625 33.34375 -13.007812 33.34375 -10.84375 C 33.34375 -7.382812 31.992188 -4.613281 29.296875 -2.53125 C 26.597656 -0.445312 22.992188 0.59375 18.484375 0.59375 C 15.554688 0.59375 12.820312 0.03125 10.28125 -1.09375 C 7.738281 -2.21875 5.78125 -3.753906 4.40625 -5.703125 C 3.03125 -7.660156 2.34375 -9.878906 2.34375 -12.359375 L 8 -12.359375 C 8 -9.785156 8.953125 -7.75 10.859375 -6.25 C 12.765625 -4.757812 15.304688 -4.015625 18.484375 -4.015625 C 21.453125 -4.015625 23.726562 -4.617188 25.3125 -5.828125 C 26.894531 -7.035156 27.6875 -8.6875 27.6875 -10.78125 C 27.6875 -12.875 26.953125 -14.488281 25.484375 -15.625 C 24.023438 -16.769531 21.367188 -17.898438 17.515625 -19.015625 Z M 17.515625 -19.015625 "/></g></g><g transform="translate(143.999541, 207.749986)"><g><path d="M 12.953125 -14.671875 L 9.546875 -11.140625 L 9.546875 0 L 4.125 0 L 4.125 -45 L 9.546875 -45 L 9.546875 -17.78125 L 12.453125 -21.265625 L 22.328125 -31.703125 L 28.921875 -31.703125 L 16.578125 -18.453125 L 30.359375 0 L 24 0 Z M 12.953125 -14.671875 "/></g></g><g transform="translate(174.409696, 207.749986)"><g><path d="M 14.46875 -7.9375 L 21.859375 -31.703125 L 27.65625 -31.703125 L 14.90625 4.890625 C 12.9375 10.160156 9.804688 12.796875 5.515625 12.796875 L 4.484375 12.71875 L 2.46875 12.328125 L 2.46875 7.9375 L 3.921875 8.0625 C 5.765625 8.0625 7.195312 7.6875 8.21875 6.9375 C 9.238281 6.195312 10.082031 4.84375 10.75 2.875 L 11.953125 -0.359375 L 0.640625 -31.703125 L 6.5625 -31.703125 Z M 14.46875 -7.9375 "/></g></g><g transform="translate(202.798366, 207.749986)"><g><path d="M 37.53125 -19.953125 C 37.53125 -15.828125 36.875 -12.273438 35.5625 -9.296875 C 34.257812 -6.316406 32.425781 -3.988281 30.0625 -2.3125 L 37.671875 3.65625 L 33.84375 7.203125 L 24.84375 0.0625 C 23.4375 0.414062 21.953125 0.59375 20.390625 0.59375 C 17.035156 0.59375 14.054688 -0.226562 11.453125 -1.875 C 8.859375 -3.53125 6.84375 -5.882812 5.40625 -8.9375 C 3.96875 -12 3.226562 -15.546875 3.1875 -19.578125 L 3.1875 -22.640625 C 3.1875 -26.742188 3.898438 -30.367188 5.328125 -33.515625 C 6.753906 -36.660156 8.769531 -39.066406 11.375 -40.734375 C 13.988281 -42.410156 16.972656 -43.25 20.328125 -43.25 C 23.765625 -43.25 26.785156 -42.414062 29.390625 -40.75 C 32.003906 -39.09375 34.015625 -36.707031 35.421875 -33.59375 C 36.828125 -30.476562 37.53125 -26.835938 37.53125 -22.671875 Z M 31.90625 -22.703125 C 31.90625 -27.722656 30.90625 -31.59375 28.90625 -34.3125 C 26.90625 -37.039062 24.046875 -38.40625 20.328125 -38.40625 C 16.796875 -38.40625 14.007812 -37.050781 11.96875 -34.34375 C 9.925781 -31.644531 8.875 -27.894531 8.8125 -23.09375 L 8.8125 -19.953125 C 8.8125 -15.066406 9.832031 -11.21875 11.875 -8.40625 C 13.914062 -5.59375 16.753906 -4.1875 20.390625 -4.1875 C 24.023438 -4.1875 26.835938 -5.507812 28.828125 -8.15625 C 30.816406 -10.800781 31.84375 -14.597656 31.90625 -19.546875 Z M 31.90625 -22.703125 "/></g></g><g transform="translate(244.048363, 207.749986)"><g><path d="M 23.671875 -3.140625 C 21.566406 -0.648438 18.472656 0.59375 14.390625 0.59375 C 11.003906 0.59375 8.425781 -0.382812 6.65625 -2.34375 C 4.894531 -4.3125 4.003906 -7.222656 3.984375 -11.078125 L 3.984375 -31.703125 L 9.40625 -31.703125 L 9.40625 -11.21875 C 9.40625 -6.414062 11.359375 -4.015625 15.265625 -4.015625 C 19.398438 -4.015625 22.15625 -5.554688 23.53125 -8.640625 L 23.53125 -31.703125 L 28.953125 -31.703125 L 28.953125 0 L 23.796875 0 Z M 23.671875 -3.140625 "/></g></g><g transform="translate(277.124533, 207.749986)"><g><path d="M 17.25 0.59375 C 12.957031 0.59375 9.460938 -0.816406 6.765625 -3.640625 C 4.066406 -6.460938 2.71875 -10.238281 2.71875 -14.96875 L 2.71875 -15.96875 C 2.71875 -19.113281 3.316406 -21.921875 4.515625 -24.390625 C 5.722656 -26.859375 7.40625 -28.789062 9.5625 -30.1875 C 11.71875 -31.582031 14.054688 -32.28125 16.578125 -32.28125 C 20.703125 -32.28125 23.90625 -30.921875 26.1875 -28.203125 C 28.476562 -25.492188 29.625 -21.609375 29.625 -16.546875 L 29.625 -14.296875 L 8.140625 -14.296875 C 8.222656 -11.171875 9.132812 -8.644531 10.875 -6.71875 C 12.625 -4.800781 14.847656 -3.84375 17.546875 -3.84375 C 19.460938 -3.84375 21.082031 -4.234375 22.40625 -5.015625 C 23.738281 -5.796875 24.90625 -6.828125 25.90625 -8.109375 L 29.203125 -5.53125 C 26.546875 -1.445312 22.5625 0.59375 17.25 0.59375 Z M 16.578125 -27.828125 C 14.390625 -27.828125 12.550781 -27.03125 11.0625 -25.4375 C 9.582031 -23.851562 8.671875 -21.625 8.328125 -18.75 L 24.203125 -18.75 L 24.203125 -19.15625 C 24.046875 -21.914062 23.300781 -24.050781 21.96875 -25.5625 C 20.644531 -27.070312 18.847656 -27.828125 16.578125 -27.828125 Z M 16.578125 -27.828125 "/></g></g><g transform="translate(308.91164, 207.749986)"><g><path d="M 22.5625 -8.40625 C 22.5625 -9.875 22.007812 -11.007812 20.90625 -11.8125 C 19.800781 -12.625 17.875 -13.320312 15.125 -13.90625 C 12.382812 -14.5 10.207031 -15.203125 8.59375 -16.015625 C 6.988281 -16.835938 5.800781 -17.816406 5.03125 -18.953125 C 4.257812 -20.085938 3.875 -21.4375 3.875 -23 C 3.875 -25.59375 4.96875 -27.785156 7.15625 -29.578125 C 9.351562 -31.378906 12.164062 -32.28125 15.59375 -32.28125 C 19.1875 -32.28125 22.097656 -31.351562 24.328125 -29.5 C 26.566406 -27.644531 27.6875 -25.273438 27.6875 -22.390625 L 22.234375 -22.390625 C 22.234375 -23.867188 21.601562 -25.144531 20.34375 -26.21875 C 19.082031 -27.289062 17.5 -27.828125 15.59375 -27.828125 C 13.613281 -27.828125 12.066406 -27.394531 10.953125 -26.53125 C 9.835938 -25.675781 9.28125 -24.554688 9.28125 -23.171875 C 9.28125 -21.867188 9.796875 -20.882812 10.828125 -20.21875 C 11.867188 -19.550781 13.742188 -18.914062 16.453125 -18.3125 C 19.160156 -17.707031 21.351562 -16.984375 23.03125 -16.140625 C 24.707031 -15.304688 25.953125 -14.296875 26.765625 -13.109375 C 27.578125 -11.929688 27.984375 -10.492188 27.984375 -8.796875 C 27.984375 -5.960938 26.847656 -3.6875 24.578125 -1.96875 C 22.316406 -0.257812 19.378906 0.59375 15.765625 0.59375 C 13.222656 0.59375 10.972656 0.144531 9.015625 -0.75 C 7.066406 -1.65625 5.539062 -2.910156 4.4375 -4.515625 C 3.332031 -6.128906 2.78125 -7.875 2.78125 -9.75 L 8.203125 -9.75 C 8.296875 -7.9375 9.019531 -6.5 10.375 -5.4375 C 11.738281 -4.375 13.535156 -3.84375 15.765625 -3.84375 C 17.816406 -3.84375 19.460938 -4.253906 20.703125 -5.078125 C 21.941406 -5.910156 22.5625 -7.019531 22.5625 -8.40625 Z M 22.5625 -8.40625 "/></g></g><g transform="translate(339.849138, 207.749986)"><g><path d="M 11.453125 -39.375 L 11.453125 -31.703125 L 17.375 -31.703125 L 17.375 -27.515625 L 11.453125 -27.515625 L 11.453125 -7.859375 C 11.453125 -6.585938 11.710938 -5.632812 12.234375 -5 C 12.765625 -4.363281 13.664062 -4.046875 14.9375 -4.046875 C 15.5625 -4.046875 16.421875 -4.160156 17.515625 -4.390625 L 17.515625 0 C 16.085938 0.394531 14.703125 0.59375 13.359375 0.59375 C 10.941406 0.59375 9.113281 -0.140625 7.875 -1.609375 C 6.644531 -3.078125 6.03125 -5.160156 6.03125 -7.859375 L 6.03125 -27.515625 L 0.265625 -27.515625 L 0.265625 -31.703125 L 6.03125 -31.703125 L 6.03125 -39.375 Z M 11.453125 -39.375 "/></g></g></g></svg>